# xmcd
#
# Track frame offsets: 
#        150
#        3586
#        20704
#        32825
#        56415
#        77138
#        91381
#        113708
#        132273
#        157951
#        198255
#        220034
#        239370
#        267152
#        285223
#
# Disc length: 4380 seconds
#
# Revision: 0
# Processed by: cddbd v1.5.2PL0 Copyright (c) Steve Scherf et al.
# Submitted via: ExactAudioCopy v0.95b4
#
DISCID=c1111a0f
DTITLE=Stevie Ray Vaughan - 1990-08-26 - SRV Last Night
DYEAR=1990
DGENRE=Blues
TTITLE0=Collins Shuffle
TTITLE1=Testify
TTITLE2=The House Is Rockin'
TTITLE3=Tightrope
TTITLE4=Things I Used To Do
TTITLE5=Let Me Love You baby
TTITLE6=Leave My Girl Alone
TTITLE7=Pride And Joy
TTITLE8=Wall Of Denial
TTITLE9=Riviera Paradise
TTITLE10=Superstition
TTITLE11=Couldn't Stand The Weather
TTITLE12=Going Down
TTITLE13=Crossfire
TTITLE14=Voodoo Chile
EXTD=
EXTT0=
EXTT1=
EXTT2=
EXTT3=
EXTT4=
EXTT5=
EXTT6=
EXTT7=
EXTT8=
EXTT9=
EXTT10=
EXTT11=
EXTT12=
EXTT13=
EXTT14=
PLAYORDER=
